<svg height="496pt" viewBox="0 0 496 496" width="496pt" xmlns="http://www.w3.org/2000/svg" xmlns:xlink="http://www.w3.org/1999/xlink"><linearGradient id="linear0" gradientUnits="userSpaceOnUse" x1="248" x2="248" y1="496" y2="0"><stop offset="0" stop-color="#9f2fff"/><stop offset="1" stop-color="#0bb1d3"/></linearGradient><path d="m184 336h-120v-16h120zm0-144h-120v16h120zm-152 80h120v-16h-120zm464 96v16c0 8.824219-7.183594 16-16 16v96h-464v-96c-8.824219 0-16-7.175781-16-16v-32h8c13.230469 0 24-10.769531 24-24s-10.769531-24-24-24h-8v-16h8.199219c-5.070313-6.703125-8.199219-14.960938-8.199219-24s3.128906-17.296875 8.199219-24h-8.199219v-16h8c13.230469 0 24-10.769531 24-24s-10.769531-24-24-24h-8v-16h176c22.054688 0 40 17.945312 40 40 0 9.039062-3.128906 17.296875-8.199219 24h8.199219v16h-8c-13.230469 0-24 10.769531-24 24 0 10.6875 7.070312 19.664062 16.742188 22.761719 2.761718-14.617188 13.539062-26.90625 28.167968-31.121094l75.089844-21.65625v-16.367187l-7.0625-4.707032c-10.691406-7.117187-18.328125-17.558594-22.152344-29.429687-15.160156-2.511719-26.785156-15.625-26.785156-31.480469v-64c0-48.519531 39.480469-88 88-88s88 39.480469 88 88v64c0 15.855469-11.625 28.96875-26.792969 31.472656-3.824219 11.871094-11.464843 22.3125-22.152343 29.429688l-7.054688 4.714844v16.367187l75.089844 21.664063c17.023437 4.894531 28.910156 20.703124 28.910156 38.421874v57.929688h8c8.816406 0 16 7.175781 16 16zm-88-216c0-5.894531-3.238281-11-8-13.777344v27.546875c4.761719-2.769531 8-7.875 8-13.769531zm-136 13.777344v-27.546875c-4.761719 2.777343-8 7.882812-8 13.777343 0 5.894532 3.238281 10.992188 8 13.769532zm59.558594-76.433594 4.441406-2.960938 4.441406 2.960938c14.375 9.59375 31.109375 14.65625 48.398438 14.65625h11.160156v17.136719c2.839844.734375 5.511719 1.863281 8 3.3125v-36.449219c0-39.695312-32.296875-72-72-72s-72 32.304688-72 72v36.449219c2.480469-1.449219 5.152344-2.578125 8-3.3125v-17.136719h11.152344c17.296875 0 34.023437-5.0625 48.40625-14.65625zm-25.742188 110.25 19.96875 13.308594c6.078125 4.050781 14.359375 4.050781 20.4375 0l19.96875-13.308594c11.152344-7.433594 17.808594-19.882812 17.808594-33.28125v-46.425781c-16.984375-.789063-33.40625-5.726563-48-14.429688-14.59375 8.703125-31.015625 13.640625-48 14.429688v46.425781c0 13.398438 6.65625 25.847656 17.816406 33.28125zm14.183594 32.40625c0 8.824219 7.175781 16 16 16 8.816406 0 16-7.175781 16-16v-4.03125c-4.9375 2.597656-10.382812 4.03125-16 4.03125s-11.0625-1.433594-16-4.03125zm-104 62.070312v33.929688c0 9.039062-3.128906 17.296875-8.199219 24h86.726563c-3.3125-9.296875-12.113282-16-22.519532-16h-40v-16h16v-32h16v32h8c2.746094 0 5.417969.28125 8 .808594v-48.808594h24c13.070313 0 24.695313 6.304688 32 16.023438 7.296876-9.71875 18.921876-16.023438 31.992188-16.023438h24v48.808594c2.585938-.527344 5.257812-.808594 8-.808594h8v-32h16v32h16v16h-40c-10.414062 0-19.207031 6.703125-22.519531 16h78.519531v-57.929688c0-10.628906-7.136719-20.109374-17.351562-23.054687l-75.738282-21.847656c-5.6875 8.886719-15.589844 14.832031-26.910156 14.832031s-21.222656-5.945312-26.910156-14.832031l-75.738282 21.847656c-10.214843 2.945313-17.351562 12.425781-17.351562 23.054687zm112 57.929688v-40c0-13.230469-10.769531-24-24-24h-8v40.199219c7.625 5.777343 13.207031 14.097656 15.183594 23.800781zm16 0h16.816406c1.976563-9.695312 7.558594-18.023438 15.183594-23.800781v-40.199219h-8c-13.230469 0-24 10.769531-24 24zm-296-152c0 9.039062-3.128906 17.296875-8.199219 24h136.199219c13.230469 0 24-10.769531 24-24s-10.769531-24-24-24h-136.199219c5.070313 6.703125 8.199219 14.960938 8.199219 24zm-8 88h136.199219c-5.070313-6.703125-8.199219-14.960938-8.199219-24s3.128906-17.296875 8.199219-24h-136.199219c-13.230469 0-24 10.769531-24 24s10.769531 24 24 24zm-.199219 16c5.070313 6.703125 8.199219 14.960938 8.199219 24s-3.128906 17.296875-8.199219 24h136.199219c13.230469 0 24-10.769531 24-24s-10.769531-24-24-24zm424.199219 96h-32v48h-144v-48h-80v48h-144v-48h-32v80h432zm-384 32h112v-32h-112zm224 0h112v-32h-112zm176-48v-16h-464v16zm0 0" fill="url(#linear0)"/></svg>